<?xml version="1.0" encoding="UTF-8"?>
<svg viewBox="0 0 400 400" xmlns="http://www.w3.org/2000/svg" xmlns:xlink="http://www.w3.org/1999/xlink">
 <defs>
  <filter id="i">
   <feGaussianBlur stdDeviation=".79545"/>
  </filter>
  <filter id="c">
   <feGaussianBlur stdDeviation=".53036"/>
  </filter>
  <filter id="a" x="-.4512" y="-.4512" width="1.9024" height="1.9024">
   <feGaussianBlur stdDeviation="19.94143"/>
  </filter>
  <filter id="j" x="-.12" y="-.12" width="1.24" height="1.24">
   <feGaussianBlur stdDeviation="5.30357"/>
  </filter>
  <linearGradient id="b">
   <stop stop-color="#fff" offset="0"/>
   <stop stop-color="#fff" stop-opacity="0" offset="1"/>
  </linearGradient>
  <linearGradient id="g" x1="275.61" x2="342" y1="300.86" y2="391.45" gradientUnits="userSpaceOnUse">
   <stop stop-color="#112b00" offset="0"/>
   <stop stop-color="#6f0" offset="1"/>
  </linearGradient>
  <linearGradient id="f" x1="-457.02" x2="-247.09" y1="346.42" y2="313.14" gradientUnits="userSpaceOnUse">
   <stop stop-color="#cf0" offset="0"/>
   <stop stop-color="#dee3db" stop-opacity="0" offset="1"/>
  </linearGradient>
  <linearGradient id="h" x1="241.41" x2="315.47" y1="287.49" y2="367.88" gradientUnits="userSpaceOnUse" xlink:href="#b"/>
  <linearGradient id="e" x1="366" x2="418" y1="315.22" y2="447.22" gradientUnits="userSpaceOnUse" xlink:href="#b"/>
  <radialGradient id="d" cx="312.78" cy="386.57" r="53.036" gradientTransform="matrix(-.59327 -.59327 .71505 -.71505 243.27 849.03)" gradientUnits="userSpaceOnUse">
   <stop stop-color="#fff" stop-opacity=".40816" offset="0"/>
   <stop stop-color="#fff" stop-opacity="0" offset="1"/>
  </radialGradient>
 </defs>
 <g transform="matrix(.58317 0 0 .58317 -21.32 -104.41)">
  <path transform="matrix(4.8498 0 0 4.8498 -1099.1 -1144.2)" d="m356.79 346.11c0 29.291-23.745 53.036-53.036 53.036s-53.036-23.745-53.036-53.036 23.745-53.036 53.036-53.036 53.036 23.745 53.036 53.036z"/>
  <path transform="matrix(4.7419 0 0 4.7419 -1066.4 -1106.9)" d="m356.79 346.11c0 29.291-23.745 53.036-53.036 53.036s-53.036-23.745-53.036-53.036 23.745-53.036 53.036-53.036 53.036 23.745 53.036 53.036z" fill="#999"/>
  <path transform="matrix(4.6866 0 0 4.6866 -1049.6 -1087.7)" d="m356.79 346.11c0 29.291-23.745 53.036-53.036 53.036s-53.036-23.745-53.036-53.036 23.745-53.036 53.036-53.036 53.036 23.745 53.036 53.036z" fill="url(#h)"/>
  <path transform="matrix(4.644 0 0 4.644 -1036.6 -1073)" d="m356.79 346.11c0 29.291-23.745 53.036-53.036 53.036s-53.036-23.745-53.036-53.036 23.745-53.036 53.036-53.036 53.036 23.745 53.036 53.036z" fill="#ececec" filter="url(#c)"/>
  <path transform="matrix(4.457 0 0 4.457 -979.82 -1008.3)" d="m356.79 346.11c0 29.291-23.745 53.036-53.036 53.036s-53.036-23.745-53.036-53.036 23.745-53.036 53.036-53.036 53.036 23.745 53.036 53.036z" fill="#999" filter="url(#c)"/>
  <path transform="matrix(4.4809 0 0 4.4809 -988.35 -1017.8)" d="m356.79 346.11c0 29.291-23.745 53.036-53.036 53.036s-53.036-23.745-53.036-53.036 23.745-53.036 53.036-53.036 53.036 23.745 53.036 53.036z" fill="#112b00" opacity=".87611"/>
  <path transform="matrix(4.2842 0 0 4.2842 -927.32 -948.44)" d="m356.79 346.11c0 29.291-23.745 53.036-53.036 53.036s-53.036-23.745-53.036-53.036 23.745-53.036 53.036-53.036 53.036 23.745 53.036 53.036z" fill="url(#g)"/>
  <path transform="matrix(4.031 0 0 4.031 -843.71 -850.09)" d="m356.79 346.11c0 29.291-23.745 53.036-53.036 53.036s-53.036-23.745-53.036-53.036 23.745-53.036 53.036-53.036 53.036 23.745 53.036 53.036z" fill="url(#d)"/>
  <g transform="translate(14 104.86)" fill="none" stroke="#fff">
   <path d="m358.5 202.33v451.06" stroke-width="1.9134"/>
   <path d="m577.66 427.36h-439.31" stroke-width="2.4378"/>
  </g>
  <path transform="translate(30 112.86)" d="m534 420.36c0 106.04-85.961 192-192 192s-192-85.961-192-192 85.961-192 192-192 192 85.961 192 192z" fill="none" opacity=".87611" stroke="#041900" stroke-width="3"/>
  <path transform="matrix(.78125 0 0 .78125 104.81 204.81)" d="m534 420.36c0 106.04-85.961 192-192 192s-192-85.961-192-192 85.961-192 192-192 192 85.961 192 192z" fill="none" opacity=".87611" stroke="#041900" stroke-width="3.84"/>
  <path transform="matrix(.58333 0 0 .58333 172.5 288.01)" d="m534 420.36c0 106.04-85.961 192-192 192s-192-85.961-192-192 85.961-192 192-192 192 85.961 192 192z" fill="none" opacity=".87611" stroke="#041900" stroke-width="5.1429"/>
  <path transform="matrix(.39583 0 0 .39583 236.62 366.83)" d="m534 420.36c0 106.04-85.961 192-192 192s-192-85.961-192-192 85.961-192 192-192 192 85.961 192 192z" fill="none" opacity=".87611" stroke="#041900" stroke-width="7.579"/>
  <path transform="matrix(.20833 0 0 .20833 300.75 445.64)" d="m534 420.36c0 106.04-85.961 192-192 192s-192-85.961-192-192 85.961-192 192-192 192 85.961 192 192z" fill="none" opacity=".87611" stroke="#041900" stroke-width="14.4"/>
  <path transform="matrix(.02083 0 0 .02083 364.87 524.46)" d="m534 420.36c0 106.04-85.961 192-192 192s-192-85.961-192-192 85.961-192 192-192 192 85.961 192 192z" fill="none" opacity=".87611" stroke="#041900" stroke-width="144"/>
  <path transform="matrix(.02899 -.91709 .91709 .02899 207.08 161.14)" d="m-154 192.36c0 134.76-109.24 244-244 244-62.649 0-122.9-24.098-168.27-67.302l168.27-176.7z" fill="url(#f)" opacity=".87611"/>
  <path d="m373.37 532.83a1.8427 1.8427 0 0 0 -1.0938 3.1562l155.06 155.69a1.8451 1.8451 0 1 0 2.625 -2.5938l-155.09-155.69a1.8427 1.8427 0 0 0 -1.5 -0.5625z" fill="#fea" filter="url(#i)"/>
  <path transform="matrix(.3737 0 0 .3737 347.06 445.05)" d="m356.79 346.11c0 29.291-23.745 53.036-53.036 53.036s-53.036-23.745-53.036-53.036 23.745-53.036 53.036-53.036 53.036 23.745 53.036 53.036z" fill="#dde9af" filter="url(#j)"/>
  <path transform="matrix(.13041 0 0 .13041 191.96 362.26)" d="m356.79 346.11c0 29.291-23.745 53.036-53.036 53.036s-53.036-23.745-53.036-53.036 23.745-53.036 53.036-53.036 53.036 23.745 53.036 53.036z" fill="#dde9af" filter="url(#a)"/>
  <path transform="matrix(.13041 0 0 .13041 256.96 603.26)" d="m356.79 346.11c0 29.291-23.745 53.036-53.036 53.036s-53.036-23.745-53.036-53.036 23.745-53.036 53.036-53.036 53.036 23.745 53.036 53.036z" fill="#dde9af" filter="url(#a)"/>
  <path transform="matrix(.2097 0 0 .2097 241.87 602.82)" d="m356.79 346.11c0 29.291-23.745 53.036-53.036 53.036s-53.036-23.745-53.036-53.036 23.745-53.036 53.036-53.036 53.036 23.745 53.036 53.036z" fill="#dde9af" filter="url(#a)"/>
  <path transform="matrix(.2989 0 0 .2989 392.78 326.94)" d="m356.79 346.11c0 29.291-23.745 53.036-53.036 53.036s-53.036-23.745-53.036-53.036 23.745-53.036 53.036-53.036 53.036 23.745 53.036 53.036z" fill="#dde9af" filter="url(#a)"/>
  <path d="m316.5 519.26v26.916" fill="none" stroke="#fff" stroke-linecap="round" stroke-width="1.667"/>
  <path d="m242.5 519.26v26.916" fill="none" stroke="#fff" stroke-linecap="round" stroke-width="1.667"/>
  <path d="m430.5 519.26v26.916" fill="none" stroke="#fff" stroke-linecap="round" stroke-width="1.667"/>
  <path d="m504.5 519.26v26.916" fill="none" stroke="#fff" stroke-linecap="round" stroke-width="1.667"/>
  <path d="m386.67 475.65-26.915 0.13532" fill="none" stroke="#fff" stroke-linecap="round" stroke-width="1.667"/>
  <path d="m386.3 401.65-26.915 0.13531" fill="none" stroke="#fff" stroke-linecap="round" stroke-width="1.667"/>
  <path d="m387.24 589.65-26.915 0.13532" fill="none" stroke="#fff" stroke-linecap="round" stroke-width="1.667"/>
  <path d="m387.62 663.65-26.915 0.13531" fill="none" stroke="#fff" stroke-linecap="round" stroke-width="1.667"/>
  <path d="m365.77 308.74c-76.184 1.7184-149.65 42.051-190.51 112.82-43.949 76.122-38.37 167.25 6.5977 236.2 4.8752-151.63 120.77-265.83 264.74-257.48 47.199 2.7379 91.75 18.288 130.64 43.381-18.618-42.575-50.389-79.741-93.689-104.74-37.071-21.403-77.866-31.085-117.77-30.185z" fill="url(#e)" opacity=".31771"/>
  <path d="m272.58 628.71h29.105v12.343h-29.105z" fill="#0c2a00" opacity=".87611"/>
  <g fill="#dde9af" font-family="Sakkal Majalla" font-size="12.482" font-weight="bold" letter-spacing="0" word-spacing="0">
   <path d="m278.00113,638.27028c-.39818,0-.73643-.0691-1.01475-.20722s-.50585-.34129-.68259-.60945-.30574-.60032-.387-.99646-.12189-.85425-.12189-1.37433c0-.49162.0396-.93449.11884-1.32861s.2062-.72931.38091-1.0056 .40224-.48858.68259-.63688 .62164-.22245 1.02389-.22246 .74251.0701 1.02084.21027 .50482.34638.67954.61859 .30168.6054.38091.99951 .11884.84512.11884,1.35299c0,.4957-.0396.9406-.11884,1.33471s-.2062.72932-.38091,1.00561-.40123.48858-.67954.63688-.61861.22245-1.02084.22245zm-.90809-3.19355c0,.44694.0152.83191.0457,1.15492s.0813.59016.15236.80143 .16354.36771.2773.46928 .25597.15237.42662.15237c.11783,0 .23464-.0142.35044-.0427s.21838-.0691.30777-.1219c.0813-.0488.14424-.26714.18894-.65516s.067-.97208.067-1.75219c-1e-005-.86948-.0681-1.51754-.20417-1.94416s-.36669-.63992-.69173-.63993c-.24379,1e-005-.44491.0427-.60337.12799-.0934.0488-.16963.28035-.22854.69478s-.0884.99951-.0884,1.75523z"/>
   <path d="m281.74928,636.66741 .84105.83495-.84105.83496-.83495-.83496z"/>
   <path d="m284.6442,637.26468 .37481-.003 .46014-.006 .49976-.006 .49975-.009 1.18844-.0305-.21331.98732h-4.08336v-.42662l1.87713-2.16966c.24784-.28847.44591-.57288.59422-.85324s.22245-.58304.22245-.90809-.0955-.58304-.28644-.77401-.47741-.28643-.85934-.28644c-.22753,1e-005-.46928.0305-.72525.0914s-.49772.13205-.72525.21331l.13408-.99342c.0853-.0284.19299-.0559.32301-.0823s.26816-.0487.41443-.067 .29457-.0325.4449-.0427 .28848-.0152.41443-.0152c.2966,1e-005 .57492.0315.83496.0945s.48553.15846.67649.28644 .34231.28848.45405.48147 .16759.41951.1676.67954c-1e-005,.21941-.0356.42866-.10666.62774s-.1676.39514-.28949.58813-.26512.38497-.42966.57593-.34029.38803-.52718.59118z"/>
   <path d="m289.62955,633.95533c0,.43881.0752.75776.2255.95685s.36973.29863.65821.29863c.18283,0 .35754-.0223.52413-.067s.31082-.10767.43271-.18893c0-.30879-.009-.61047-.0274-.90504s-.0589-.55664-.12189-.7862-.15542-.41443-.2773-.55461-.28442-.21025-.48757-.21026c-.12189,1e-005-.23464.0122-.33825.0366s-.19401.065-.27121.12189-.15439.19198-.2194.40529-.0975.51093-.0975.89285zm1.31033,3.44952c.15439-.0934.27933-.30574.37481-.63688s.14322-.79331.14323-1.38651c-.1544.14221-.35146.2641-.59118.36567s-.50178.15237-.7862.15236c-.26409,1e-005-.5028-.0386-.71611-.11579s-.39411-.19401-.54241-.35044-.26308-.35348-.34434-.59117-.1219-.51905-.1219-.8441c0-.31285.0508-.59828.15237-.85628s.24683-.48045.43576-.66736 .41748-.33113.68564-.43271 .57085-.15236.90809-.15237c.38192,1e-005 .71204.0701.99036.21027s.50889.34333.69174.60945 .31792.59118.40528.97513 .13103.81972.13104,1.30728c-1e-005,.56071-.0681,1.04726-.20417,1.45965s-.32505.75268-.5668,1.02084-.53023.46725-.86542.59727-.7019.19502-1.10007.19502c-.26816,0-.52007-.0152-.75573-.0457s-.46725-.0762-.69478-.13712l.17675-.88981c.0935.0366.20315.0752.3291.1158s.258.0782.39615.11275l.42052.0884c.14221.0244.27426.0366.39615.0366 .17065,0 .30473-.0142.40224-.0427s.1808-.0609.24988-.0975z"/>
   <path d="m294.86477,634.55869c.45912-.0284.80042-.129 1.02389-.30168s.3352-.40731.3352-.70392c0-.26816-.0935-.46318-.28035-.58508s-.48757-.18283-.90199-.18284c-.19909,1e-005-.41545.0234-.64907.0701s-.46014.11072-.67955.19198l.16455-.93856c.0975-.0406.20722-.0752.32911-.10361s.24988-.0518.38396-.0701 .26714-.0315.39919-.0396 .25496-.0122.36872-.0122c.66228,1e-005 1.17117.11885 1.52669.35653s.53327.59829.53327,1.08179c0,.21128-.0437.39615-.13103.5546s-.19706.29559-.3291.41138-.27426.21027-.42662.2834-.29356.12799-.42358.16455v.0183c.16659.0244.34231.0721.52718.14322s.3545.16659.5089.28644 .28238.26614.38396.43881 .15236.37482.15236.60641c0,.25191-.0721.50077-.21636.74658s-.33114.46522-.5607.65822-.48756.34942-.77401.46928-.56984.17979-.85019.17979c-.41443,0-.7862-.0386-1.1153-.1158s-.62774-.19909-.8959-.36567l.37786-.88981c.0813.0691.18487.14424.31082.2255s.26207.15744.40834.22855 .2966.13103.451.17979 .30269.0731.4449.0731c.17065,0 .31895-.0132.4449-.0396s.23566-.062.32911-.10666c.11376-.0569.21026-.17471.28949-.35348s.11884-.43678.11884-.77401c0-.26816-.0508-.48147-.15236-.63993s-.22956-.28035-.38396-.36568-.32403-.14017-.50889-.16455-.36263-.0366-.53328-.0366z"/>
  </g>
  <path d="m485.58 449.71h29.105v12.343h-29.105z" fill="#0c2a00" opacity=".87611"/>
  <g fill="#dde9af" font-family="Sakkal Majalla" font-size="12.482" font-weight="bold" letter-spacing="0" word-spacing="0">
   <path d="m492.87902,457.16153c0-.43474-.0752-.74658-.2255-.93551s-.36771-.2834-.65212-.2834c-.18284,0-.35653.0224-.52108.067s-.30778.10767-.42967.18893c0,.30879.0122.61047.0366.90504s.0721.55664.14322.7862 .17065.41443.29864.5546 .29355.21027.4967.21027c.13002,0 .24073-.0142.33216-.0427s.17369-.0711.24682-.12799c.065-.0488.12697-.17877.18589-.39005s.0884-.5221.0884-.93247zm-1.35299-3.42514c-.14221.0975-.25699.32606-.34434.68564s-.13104.80956-.13104,1.34994c.1544-.1422.35145-.26409.59117-.36567s.50179-.15236.7862-.15237c.2641,1e-005 .5028.0386.71611.1158s.39411.19401.54242.35044 .26308.3545.34434.59422 .12189.52007.12189.84105c0,.31285-.0488.59828-.14627.85628s-.23667.48046-.41747.66736-.40022.33113-.65822.43271-.54953.15236-.87457.15236c-.38192,0-.71611-.0701-1.00255-.21026s-.52617-.34333-.71916-.60946-.33825-.59117-.43576-.97512-.14627-.81972-.14627-1.30729c0-.59726.0772-1.10412.23159-1.52059s.3606-.75369.6186-1.0117 .55765-.44591.89895-.56374 .69884-.17674 1.07264-.17675c.25191,1e-005 .48756.0142.70697.0427s.43881.065.65821.1097l-.18893.92028-.36872-.12494-.40529-.1158-.41747-.0853c-.14018-.0223-.27528-.0335-.40529-.0335s-.2509.0112-.36263.0335-.20011.0559-.26511.10056z"/>
   <path d="m496.22493,455.55866c.45912-.0284.80042-.129 1.02389-.30168s.3352-.40732.3352-.70392c0-.26816-.0935-.46318-.28035-.58508s-.48757-.18283-.90199-.18284c-.19909,1e-005-.41545.0234-.64907.0701s-.46014.11072-.67955.19198l.16455-.93856c.0975-.0406.20722-.0752.32911-.10361s.24988-.0518.38396-.0701 .26714-.0315.39919-.0396 .25496-.0122.36872-.0122c.66228,1e-005 1.17117.11885 1.52669.35653s.53327.59829.53327,1.08179c0,.21128-.0437.39615-.13103.5546s-.19706.29559-.32911.41138-.27425.21027-.42661.2834-.29356.12799-.42358.16455v.0183c.16659.0244.34231.0721.52718.14322s.3545.16659.5089.28644 .28238.26613.38396.43881 .15236.37482.15236.60641c0,.25191-.0721.50077-.21636.74658s-.33114.46522-.5607.65822-.48756.34942-.77401.46928-.56984.17979-.85019.17979c-.41443,0-.7862-.0386-1.1153-.1158s-.62774-.19909-.8959-.36567l.37786-.88981c.0813.0691.18487.14424.31082.2255s.26207.15744.40834.22855 .2966.13103.451.17979 .30269.0731.4449.0731c.17065,0 .31895-.0132.4449-.0396s.23566-.062.32911-.10666c.11376-.0569.21026-.17471.28949-.35348s.11884-.43678.11884-.77401c0-.26816-.0508-.48147-.15236-.63993s-.22956-.28035-.38396-.36568-.32403-.14017-.50889-.16455-.36263-.0366-.53328-.0366z"/>
   <path d="m503.02037,457.16153c-1e-005-.43474-.0752-.74658-.2255-.93551s-.36771-.2834-.65212-.2834c-.18284,0-.35653.0224-.52108.067s-.30778.10767-.42967.18893c0,.30879.0122.61047.0366.90504s.0721.55664.14322.7862 .17065.41443.29863.5546 .29356.21027.49671.21027c.13001,0 .24073-.0142.33215-.0427s.17369-.0711.24683-.12799c.065-.0488.12697-.17877.18589-.39005s.0884-.5221.0884-.93247zm-1.35299-3.42514c-.14221.0975-.25699.32606-.34435.68564s-.13103.80956-.13103,1.34994c.15439-.1422.35145-.26409.59117-.36567s.50178-.15236.7862-.15237c.26409,1e-005 .5028.0386.71611.1158s.39411.19401.54242.35044 .26307.3545.34434.59422 .12189.52007.12189.84105c0,.31285-.0488.59828-.14627.85628s-.23667.48046-.41748.66736-.40021.33113-.65821.43271-.54953.15236-.87457.15236c-.38193,0-.71611-.0701-1.00255-.21026s-.52617-.34333-.71916-.60946-.33825-.59117-.43576-.97512-.14627-.81972-.14627-1.30729c0-.59726.0772-1.10412.23159-1.52059s.3606-.75369.6186-1.0117 .55765-.44591.89895-.56374 .69884-.17674 1.07264-.17675c.25191,1e-005 .48756.0142.70697.0427s.4388.065.65821.1097l-.18893.92028-.36872-.12494-.40529-.1158-.41748-.0853c-.14017-.0223-.27527-.0335-.40528-.0335s-.2509.0112-.36263.0335-.20011.0559-.26511.10056z"/>
   <path d="m505.82996,457.66738 .84105.83495-.84105.83496-.83495-.83496z"/>
   <path d="m508.72488,458.26465 .37481-.003 .46014-.006 .49975-.006 .49976-.009 1.18844-.0305-.21331.98732h-4.08336v-.42662l1.87713-2.16966c.24784-.28847.44591-.57289.59422-.85324s.22244-.58304.22245-.90809-.0955-.58304-.28645-.77401-.47741-.28644-.85933-.28644c-.22753,0-.46928.0305-.72525.0914s-.49773.13205-.72525.21331l.13408-.99342c.0853-.0284.19299-.0559.32301-.0823s.26816-.0487.41443-.067 .29457-.0325.4449-.0427 .28847-.0152.41443-.0152c.2966,1e-005 .57492.0315.83496.0945s.48552.15847.67649.28645 .34231.28848.45405.48147 .16759.41951.1676.67954c-1e-005,.21941-.0356.42866-.10666.62774s-.1676.39514-.28949.58813-.26512.38497-.42967.57593-.34028.38803-.52718.59118z"/>
  </g>
 </g>
</svg>
